<svg width="350" height="350" viewBox="0 0 350 350" fill="none" xmlns="http://www.w3.org/2000/svg">
<g clip-path="url(#clip0_1018_4)">
<path fill-rule="evenodd" clip-rule="evenodd" d="M160.972 4.43906C169.685 -0.426583 180.315 -0.426583 189.028 4.43905L210.374 16.3591C214.553 18.6932 219.254 19.947 224.046 20.0061L248.519 20.3079C258.508 20.431 267.714 25.7216 272.816 34.2723L285.315 55.2201C287.761 59.3219 291.203 62.7477 295.324 65.184L316.366 77.6268C324.955 82.7056 330.27 91.8695 330.394 101.814L330.696 126.177C330.756 130.947 332.016 135.627 334.36 139.787L346.334 161.037C351.222 169.711 351.222 180.292 346.334 188.966L334.36 210.216C332.016 214.377 330.756 219.056 330.696 223.827L330.394 248.189C330.27 258.134 324.955 267.298 316.366 272.376L295.324 284.819C291.203 287.255 287.761 290.681 285.315 294.783L272.816 315.731C267.714 324.281 258.508 329.572 248.519 329.695L224.046 329.997C219.254 330.056 214.553 331.31 210.374 333.644L189.028 345.564C180.315 350.43 169.685 350.43 160.972 345.564L139.626 333.644C135.447 331.31 130.746 330.056 125.954 329.997L101.481 329.695C91.4919 329.572 82.2863 324.281 77.1846 315.731L64.6856 294.783C62.2382 290.681 58.797 287.255 54.6766 284.819L33.634 272.376C25.0446 267.298 19.7301 258.134 19.6064 248.189L19.3032 223.827C19.2439 219.056 17.9843 214.377 15.6397 210.216L3.66574 188.966C-1.22191 180.292 -1.22191 169.711 3.66574 161.037L15.6397 139.787C17.9843 135.627 19.2438 130.947 19.3032 126.177L19.6064 101.814C19.7301 91.8695 25.0446 82.7056 33.634 77.6268L54.6766 65.184C58.797 62.7477 62.2382 59.3219 64.6856 55.2201L77.1846 34.2723C82.2863 25.7216 91.4919 20.431 101.481 20.3079L125.954 20.0061C130.746 19.947 135.447 18.6932 139.626 16.3591L160.972 4.43906Z" fill="black"/>
</g>
<defs>
<clipPath id="clip0_1018_4">
<rect width="350" height="350" fill="white"/>
</clipPath>
</defs>
</svg>
