<?xml version="1.0" encoding="UTF-8" standalone="no"?>
<svg
   xmlns:dc="http://purl.org/dc/elements/1.1/"
   xmlns:cc="http://creativecommons.org/ns#"
   xmlns:rdf="http://www.w3.org/1999/02/22-rdf-syntax-ns#"
   xmlns:svg="http://www.w3.org/2000/svg"
   xmlns="http://www.w3.org/2000/svg"
   version="1.1"
   id="svg4227"
   height="160.9444"
   width="210.9444">
  <defs
     id="defs4229" />
  <metadata
     id="metadata4232">
    <rdf:RDF>
      <cc:Work
         rdf:about="">
        <dc:format>image/svg+xml</dc:format>
        <dc:type
           rdf:resource="http://purl.org/dc/dcmitype/StillImage" />
        <dc:title></dc:title>
      </cc:Work>
    </rdf:RDF>
  </metadata>
  <g
     transform="translate(916.9008,-711.88998)"
     id="layer1">
    <g
       id="layer1-5"
       transform="translate(-1031.4286,345.71428)">
      <g
         transform="matrix(1.25,0,0,-1.25,99.5278,567.1201)"
         id="g3177">
        <g
           transform="scale(0.24,0.24)"
           id="g3179">
          <path
             id="path3181"
             style="fill:#ffffff;fill-opacity:0;fill-rule:evenodd;stroke:none"
             d="m 0,0 803.148,0 0,803.148 L 0,803.148 0,0 Z" />
          <path
             id="path3183"
             style="fill:#000000;fill-opacity:1;fill-rule:evenodd;stroke:none"
             d="m 126.816,198.078 0.153,-4 0.461,-3.855 0.769,-3.539 1.387,-3.543 1.383,-3.075 2,-3.082 2.308,-2.769 2.614,-2.617 2.617,-2.004 2.922,-1.996 3.074,-1.692 3.387,-1.39 3.382,-1.078 3.848,-0.77 4.004,-0.457 4.305,-0.16 2.769,0.16 2.922,0.309 2.77,0.46 1.386,0.309 1.539,0.149 2.614,0.925 2.613,0.922 2.461,1.078 1.23,0.621 0.618,0.305 0.308,0.149 0.465,0 1.07,0.929 1.235,0.77 2.152,1.691 2,1.848 1.848,1.847 1.539,2.153 0.613,1.234 0.309,0.613 0.152,0.309 0.309,0.156 1.23,2.461 1.231,2.461 -24.618,0 -0.918,-1.074 -0.925,-1.078 -1.231,-0.774 -1.23,-0.769 -1.536,-0.453 -1.542,-0.469 -1.844,-0.152 -1.848,-0.153 -2.922,0.305 -1.383,0.309 -1.078,0.304 -1.226,0.621 -0.93,0.457 -1.691,1.395 -0.922,1.074 -0.614,0.922 -1.082,2.309 -0.765,2.769 -0.465,2.922 50.309,0 -0.153,2.777 0,2.461 -0.461,4.77 -0.769,4.469 -0.617,2.152 -0.461,1.848 -1.387,3.847 -0.922,1.848 -0.769,1.539 -2,3.23 -2.309,2.622 -2.613,2.617 -2.922,2 -1.692,1.074 -1.539,0.769 -3.539,1.391 -2,0.766 -1.844,0.461 -4.156,0.773 -4.461,0.461 -4.461,0.148 -4.156,-0.148 -3.691,-0.461 -3.692,-0.773 -3.23,-1.227 -3.387,-1.391 -2.922,-2 -2.922,-2.152 -2.464,-2.617 -2.458,-2.461 -2,-2.773 -1.695,-2.926 -1.383,-3.231 -1.078,-3.234 -0.769,-3.543 -0.461,-3.539 -0.153,-3.844 0,0 z m 47.075,16.008 1.23,-1.691 1.074,-2.004 0.621,-2.008 0.305,-2.301 -25.078,0 0.465,2.922 0.922,2.305 1.078,2.004 1.691,1.542 1.692,1.383 2.308,0.77 2.309,0.465 2.922,0.148 2.308,-0.148 1.075,-0.157 1.23,-0.464 2.004,-1.075 1.844,-1.691 0,0" />
          <path
             id="path3185"
             style="fill:#000000;fill-opacity:1;fill-rule:evenodd;stroke:none"
             d="m 242.348,234.398 -3.996,-0.148 -3.696,-0.461 -3.691,-0.773 -3.227,-1.075 -3.234,-1.386 -2.922,-1.692 -2.922,-2.004 -2.617,-2.461 -2.613,-2.468 -2.309,-2.922 -2,-2.926 -1.383,-3.234 -1.386,-3.231 -0.77,-3.691 -0.461,-3.696 -0.152,-4.003 0.152,-3.844 0.461,-3.699 0.77,-3.536 1.386,-3.543 1.383,-3.078 2,-3.078 2.309,-2.769 2.613,-2.778 2.617,-2.308 2.922,-1.996 2.922,-1.692 3.234,-1.39 3.227,-1.078 3.691,-0.77 3.696,-0.457 3.996,-0.16 3.386,0.16 3.387,0.457 3.074,0.621 1.539,0.457 1.692,0.313 2.769,1.078 2.926,1.226 2.613,1.539 1.231,0.93 0.613,0.457 0.774,0.305 2.308,2.16 0.922,1.23 0.461,0.618 0.613,0.457 1.848,2.464 0.309,0.766 0.46,0.621 0.922,1.231 1.231,2.922 0.461,1.542 0.617,1.383 0.309,1.696 0.46,1.543 0.305,1.691 0.465,1.539 -24.922,0 -0.308,-0.926 -0.153,0 0,-1.078 -0.769,-1.844 -0.621,-0.773 -0.457,-0.922 -1.079,-1.539 -0.921,-0.613 -0.77,-0.621 -1.543,-1.078 -1.84,-0.614 -1.847,-0.308 -1.54,0.156 -1.23,0.152 -2.309,0.77 -2,1.386 -0.921,0.926 -0.618,0.918 -1.382,2.465 -0.77,2.922 -0.461,3.547 -0.152,3.844 0.152,4.156 0.461,3.39 0.77,3.079 1.382,2.308 1.539,1.996 2,1.235 2.309,0.773 2.77,0.156 1.847,-0.156 1.84,-0.465 1.543,-0.769 1.383,-1.082 1.078,-1.075 0.926,-1.539 0.461,-1.691 0.457,-2 24.925,0 -0.46,3.539 -0.77,3.074 -1.078,2.926 -1.235,2.617 -1.691,2.617 -1.844,2.313 -2.156,2.156 -2.305,1.844 -2.464,1.691 -2.461,1.391 -2.614,1.23 -2.769,0.77 -3.078,0.918 -3.227,0.465 -3.387,0.304 -3.386,0 0,0" />
          <path
             id="path3187"
             style="fill:#000000;fill-opacity:1;fill-rule:evenodd;stroke:none"
             d="m 288.504,223.629 -2.309,-2.461 -1.847,-2.773 -1.692,-2.77 -1.074,-3.23 -1.078,-3.239 -0.617,-3.539 -0.461,-3.539 0,-7.547 0.461,-3.535 0.617,-3.387 1.078,-3.234 1.074,-2.926 1.692,-2.926 1.847,-2.765 2.309,-2.617 2.461,-2.465 2.922,-2.309 3.078,-1.847 3.539,-1.692 3.535,-1.082 4,-0.922 4.156,-0.461 4.614,-0.312 4.308,0.312 2,0.305 2.156,0.156 1.844,0.465 0.922,0.305 0.156,0.152 0.922,0 1.844,0.617 0.926,0.309 0.152,0.156 0.922,0 1.539,0.922 0.309,0.305 0.156,0.156 0.305,0 0.925,0.309 1.535,0.918 1.692,0.929 1.391,1.227 1.535,1.082 2.769,2.465 0.922,1.382 1.078,1.235 1.844,2.765 1.543,2.926 0.613,1.543 0.305,0.77 0.465,0.613 0.922,3.234 0.765,3.387 0.156,1.848 0.309,1.687 0.156,3.696 -0.156,3.851 -0.465,3.539 -0.765,3.539 -0.922,3.239 -1.383,3.23 -1.543,2.77 -1.844,2.773 -2,2.461 -2.769,2.617 -1.535,1.227 -1.391,0.925 -3.227,2 -3.234,1.391 -2,0.766 -1.844,0.461 -3.844,0.773 -4.156,0.461 -4.308,0.148 -4.614,-0.148 -4.156,-0.461 -4,-0.773 -3.535,-1.227 -3.539,-1.391 -3.078,-2 -2.922,-2.152 -2.461,-2.617 0,0 z m 17.074,-25.402 0.156,4.156 0.457,3.39 0.77,3.079 1.387,2.308 1.382,1.996 2,1.235 2.309,0.773 2.77,0.156 2.461,-0.156 2.308,-0.773 0.922,-0.461 0.922,-0.774 1.695,-1.996 1.074,-2.308 0.465,-1.387 0.614,-1.692 0.152,-1.543 0.308,-1.847 0.309,-4.156 -0.152,-1.848 -0.157,-0.922 0,-1.074 -0.308,-1.699 -0.152,-1.848 -0.614,-1.383 -0.465,-1.539 -0.609,-1.23 -0.465,-1.235 -0.922,-0.918 -0.773,-0.926 -0.922,-0.613 -0.922,-0.773 -1.234,-0.309 -0.61,-0.152 -0.464,-0.309 -1.231,-0.152 -1.23,-0.156 -1.539,0.156 -1.231,0.152 -2.309,0.77 -2,1.386 -1.382,1.844 -1.387,2.465 -0.77,2.922 -0.457,3.547 -0.156,3.844 0,0" />
          <path
             id="path3189"
             style="fill:#000000;fill-opacity:1;fill-rule:evenodd;stroke:none"
             d="m 403.266,211.469 0,22.929 -3.536,-0.148 -3.078,-0.621 -3.074,-0.918 -2.617,-1.387 -2.617,-1.695 -2.153,-2.156 -2,-2.618 -1.691,-3.074 -0.156,0 0,10.93 -25.227,0 0,-68.965 26.153,0 0,27.25 0.152,4.926 0.769,4.308 1.079,3.696 0.769,1.535 1.074,1.234 0.922,1.383 1.235,1.078 1.23,0.926 1.539,0.613 3.231,0.926 3.843,0.309 4.153,-0.461 0,0" />
          <path
             id="path3191"
             style="fill:#000000;fill-opacity:1;fill-rule:evenodd;stroke:none"
             d="m 448.035,225.172 -0.613,0 -1.844,2.301 -1.851,1.847 -2,1.7 -2.153,1.078 -2.465,1.074 -2.613,0.769 -2.769,0.457 -2.766,0 -4.004,-0.148 -3.539,-0.461 -3.383,-0.926 -2.922,-1.386 -2.925,-1.692 -2.461,-2.004 -2.309,-2.461 -1.996,-2.925 -1.535,-2.305 -1.078,-2.617 -1.079,-2.618 -0.773,-2.925 -0.766,-2.926 -0.308,-3.231 -0.305,-3.39 0,-7.078 0.305,-3.387 0.465,-3.234 0.922,-3.235 0.921,-2.926 1.231,-3.07 1.383,-2.777 1.847,-2.922 2,-2.617 2.305,-2.465 2.309,-2.004 2.769,-1.688 2.77,-1.078 3.078,-1.078 3.074,-0.461 3.539,-0.312 1.848,0.16 0.926,0.152 1.074,0 1.847,0.305 1.844,0.312 1.539,0.614 0.766,0.308 0.926,0.157 1.382,0.613 1.543,0.613 6.457,6.156 0.309,0 0,-7.695 25.074,0 0,94.672 -25.996,0 0,-33.246 z m -10.765,-9.852 2.613,-0.156 2.461,-0.773 0.926,-0.461 1.074,-0.774 1.695,-1.996 1.074,-2.308 0.461,-1.387 0.617,-1.692 0.153,-1.543 0.304,-1.847 0.309,-4.156 -0.152,-1.848 -0.157,-0.922 0,-1.074 -0.304,-1.699 -0.153,-1.848 -0.617,-1.383 -0.461,-1.539 -0.617,-1.23 -0.457,-1.235 -0.926,-0.918 -0.769,-0.926 -1.074,-0.613 -0.926,-0.773 -1.231,-0.309 -1.23,-0.461 -0.77,0 -0.613,-0.152 -1.23,-0.156 -2.926,0.308 -2.313,0.77 -1.996,1.386 -0.922,0.926 -0.617,0.918 -1.383,2.465 -0.769,2.922 -0.461,3.547 -0.156,3.844 0.156,4.156 0.461,3.39 0.769,3.079 1.383,2.308 1.539,1.996 1.996,1.235 2.313,0.773 2.926,0.156 0,0" />
          <path
             id="path3193"
             style="fill:#000000;fill-opacity:1;fill-rule:evenodd;stroke:none"
             d="m 481.266,232.711 0,-68.965 26.308,0 0,68.965 -26.308,0 0,0" />
          <path
             id="path3195"
             style="fill:#000000;fill-opacity:1;fill-rule:evenodd;stroke:none"
             d="m 507.574,258.418 -26.308,0 0,-18.32 26.308,0 0,18.32" />
          <path
             id="path3197"
             style="fill:#000000;fill-opacity:1;fill-rule:evenodd;stroke:none"
             d="m 578.953,228.863 -1.844,1.387 -1.695,1.074 -1.996,1.078 -1.848,0.614 -2.308,0.773 -2.153,0.305 -2.308,0.304 -2.309,0 -3.844,-0.148 -3.386,-0.461 -3.231,-0.773 -2.765,-1.227 -2.774,-1.391 -2.308,-1.843 -2.309,-2 -1.844,-2.617 -0.152,0 0,8.773 -25.231,0 0,-68.965 26.153,0 0,36.484 0.156,3.235 0.461,2.617 0.766,2.301 0.464,1.09 0.77,0.761 1.387,1.539 0.765,0.622 1.075,0.304 2.003,0.614 2.614,0.156 2.308,-0.156 2,-0.77 1.535,-1.074 1.231,-1.692 0.621,-1.543 0.457,-2.308 0.309,-2.617 0,-1.539 0.152,-1.844 0,-36.18 26.156,0 0,47.414 -0.156,2.77 -0.305,2.617 -0.617,2.461 -0.769,2.16 -1.075,2.301 -1.23,2.008 -1.387,1.843 -1.539,1.543 0,0" />
          <path
             id="path3199"
             style="fill:#000000;fill-opacity:1;fill-rule:evenodd;stroke:none"
             d="m 638.18,232.711 0,-8.313 -0.153,0 -0.769,1.387 -0.613,1.074 -1.54,2.004 -2,1.692 -2,1.386 -2.46,1.075 -2.618,0.773 -2.922,0.461 -3.23,0.148 -3.539,0 -3.231,-0.457 -3.074,-0.769 -2.769,-1.074 -2.77,-1.387 -2.461,-1.695 -2.304,-2 -2.004,-2.313 -2,-2.152 -1.387,-2.461 -1.383,-2.617 -0.926,-2.926 -0.918,-2.926 -0.464,-3.238 -0.461,-3.231 0,-7.074 0.308,-3.39 0.465,-3.231 0.918,-3.082 0.922,-2.766 1.234,-2.773 1.383,-2.621 1.848,-2.457 1.843,-2.309 2.309,-2.004 2.461,-1.691 2.77,-1.391 2.769,-1.074 3.231,-0.773 3.386,-0.457 3.692,-0.157 2.769,0.157 1.227,0.308 0.621,0.149 0.765,0 2.461,0.773 2.461,1.074 2.153,1.391 2.156,1.691 1.844,2.004 1.847,2 0.153,0 0,-6.312 -0.153,-0.309 0,-1.383 -0.152,-1.847 -0.305,-1.543 -0.156,-0.305 0,-1.387 -0.461,-1.234 -0.308,-1.383 -0.618,-1.078 -0.461,-1.23 -0.461,-0.309 -0.308,-0.465 -0.766,-0.918 -0.926,-0.613 -0.769,-0.621 -1.078,-0.309 -0.918,-0.461 -1.235,-0.152 -1.074,0 0,-0.156 -2.308,0.308 -2.004,0.926 -1.84,1.539 -1.695,2.156 -1.539,2.461 -25.848,0 0.308,-2.617 0.774,-2.617 0.769,-2.305 1.383,-2.312 1.231,-2.004 1.691,-1.848 1.848,-1.691 2.308,-1.692 2.157,-1.234 2.609,-1.234 2.77,-0.918 3.23,-0.926 3.23,-0.613 3.696,-0.465 3.691,-0.309 4.153,-0.148 0.921,0.148 3.235,0 1.996,0.309 2.156,0.156 3.692,0.769 0.769,0.305 0.922,0.16 1.844,0.305 3.23,1.227 0.617,0.464 0.77,0.309 1.539,0.621 1.23,0.918 0.618,0.465 0.769,0.305 2.461,1.847 0.918,1.235 0.469,0.617 0.613,0.461 1.844,2.461 0.613,1.382 0.77,1.235 0.621,1.543 0.304,0.762 0.461,0.621 0.926,3.23 0.77,3.391 0.461,3.695 0,1.996 0.152,1.848 0,60.035 -26.156,0 0,0 z m -10.766,-17.391 2.613,-0.156 2.309,-0.773 2,-1.078 0.922,-0.77 1.082,-1.074 1.074,-1.996 0.766,-2.317 0.465,-2.617 0.308,-2.922 -0.152,-1.851 -0.156,-0.918 0,-1.078 -0.309,-1.696 -0.156,-0.308 0,-1.383 -0.305,-0.621 -0.152,-0.305 0,-0.461 -0.309,-0.621 -0.156,-0.305 0,-0.461 -0.613,-1.23 -0.465,-1.234 -0.922,-0.918 -0.766,-0.93 -0.926,-0.613 -0.461,-0.305 -0.304,-0.465 -1.235,-0.305 -0.613,-0.16 -0.461,-0.304 -1.23,-0.157 -1.078,0 0,-0.152 -2.926,0.309 -2.309,0.769 -1.996,1.383 -0.926,0.93 -0.613,0.918 -1.387,2.464 -0.613,1.387 -0.309,1.387 -0.46,3.387 -0.153,3.847 0.153,2.922 0.46,2.617 0.77,2.317 1.23,1.687 1.54,1.996 2,1.235 2.156,0.773 2.613,0.156 0,0" />
          <path
             id="path3201"
             style="fill:#000000;fill-opacity:1;fill-rule:evenodd;stroke:none"
             d="m 695.875,211.004 -1.387,0.769 -0.613,0.465 -0.309,0.305 -0.464,0.926 -0.153,0.922 0,1.386 0.461,1.075 0.465,1.078 0.922,0.621 1.078,0.613 1.383,0.305 1.535,0.308 3.543,0 1.535,-0.457 1.387,-0.465 1.387,-1.078 1.078,-0.925 1.074,-1.227 0.461,-1.234 0.308,-1.692 23.844,0 -0.305,2.77 -0.464,2.461 -0.77,2.468 -0.922,1.997 -1.383,2.003 -1.386,1.692 -1.696,1.691 -1.843,1.235 -2.309,1.382 -2.457,1.079 -2.617,1.078 -2.922,0.617 -3.234,0.617 -3.539,0.305 -3.692,0.304 -3.848,0 -6.304,-0.148 -2.922,-0.309 -2.617,-0.617 -5.075,-1.226 -4.308,-2.008 -2.617,-1.383 -2.305,-1.691 -2.004,-1.844 -1.383,-2.16 -1.383,-2.16 -0.773,-2.61 -0.457,-2.617 -0.156,-2.926 0,-2.004 0.308,-2.152 0.465,-1.848 0.766,-2 0.769,-1.539 1.231,-1.695 1.387,-1.387 1.687,-1.383 1.543,-1.078 1.996,-1.234 2.156,-0.922 2.618,-1.074 2.613,-0.77 3.23,-0.929 3.231,-0.766 3.847,-0.922 11.997,-2.926 1.078,-0.773 0.925,-1.074 0.457,-1.078 0.313,-1.54 -0.156,0 0,-1.082 -0.309,-0.46 -0.152,-0.614 -0.77,-0.922 -0.922,-0.925 -0.464,0 -0.305,-0.149 -0.613,-0.312 -1.543,-0.457 -1.844,-0.317 -1.074,0 -0.926,-0.148 -2.309,0.148 -1.844,0.465 -1.695,0.77 -1.23,0.769 -1.383,1.387 -0.617,0.765 -0.309,0.618 -0.461,1.695 -0.152,1.691 -25.227,0 0.153,-2.922 0.613,-2.769 0.769,-2.617 1.383,-2.621 1.387,-2.153 2,-2.156 2.309,-2 2.613,-1.851 4.769,-2.153 2.614,-0.922 2.925,-0.925 6,-0.918 3.227,-0.309 3.387,-0.16 0.308,0.16 3.231,0 3.383,0.309 1.539,0.304 0.308,0.156 1.387,0 1.539,0.309 0.305,0.149 1.383,0 2.773,0.769 2.766,0.93 1.23,0.613 0.617,0.305 0.309,0.156 0.461,0 2.461,1.078 1.23,0.922 1.231,0.769 2.308,1.848 1.844,2.156 1.695,2.153 0,0.461 0.153,0.308 0.308,0.617 0.614,1.235 1.078,2.769 0.152,1.536 0.305,1.39 0.312,3.074 -0.312,3.547 -0.766,3.074 -1.383,2.926 -1.695,2.309 -2.305,2.305 -2.769,2.003 -3.387,1.692 -3.691,1.234 -13.231,3.082 -9.996,2.305 0,0" />
          <path
             id="path3203"
             style="fill:#000000;fill-opacity:1;fill-rule:evenodd;stroke:none"
             d="m 556.648,357.395 -0.769,3.851 -0.926,3.231 -1.535,2.925 -0.926,1.383 -0.765,1.078 -1.387,1.539 -1.539,1.387 -1.692,1.391 -1.691,1.074 -2.156,1.23 -2.153,0.926 -4.617,1.692 -5.535,1.382 -3.074,0.621 -3.082,0.301 -3.383,0.313 -3.539,0.148 -7.383,0.156 -6.152,0 -5.696,-0.457 -5.23,-0.461 -4.77,-1.078 -4.613,-1.078 -4.156,-1.386 -3.691,-1.543 -3.231,-1.997 -3.078,-2 -2.613,-2.468 -2.305,-2.617 -1.695,-2.926 -1.539,-3.074 -1.079,-3.543 -0.769,-3.54 -0.152,-4.152 35.078,0 0.152,2.613 0.77,1.997 1.078,1.699 1.535,1.383 1.848,1.074 2.46,0.773 2.77,0.461 3.387,0.16 2.765,0 2.618,-0.465 2,-0.613 1.843,-1.078 1.231,-1.074 1.078,-1.699 0.617,-1.848 0.305,-2.309 -0.305,-1.539 -0.465,-1.539 -0.461,-0.613 -0.304,-0.777 -1.079,-1.227 -1.691,-0.926 -1.695,-0.922 -1.996,-0.621 -2.309,-0.613 -16.769,-2.461 -5.54,-0.769 -4.918,-1.079 -4.308,-1.074 -3.543,-1.23 -4.918,-2.004 -2.309,-1.078 -2.004,-1.391 -1.996,-1.226 -1.695,-1.54 -2.769,-3.23 -2.305,-3.539 -0.926,-1.848 -0.613,-2.156 -0.922,-4.465 -0.305,-2.312 0,-2.618 0.153,-3.382 0.46,-3.387 0.766,-3.082 1.078,-3.074 1.383,-2.617 1.691,-2.618 2.004,-2.308 2.614,-2.317 2.308,-1.531 2.614,-1.387 2.769,-1.234 3.074,-1.074 3.078,-0.774 3.543,-0.609 3.539,-0.316 3.844,-0.149 2.461,0.149 1.231,0.156 1.382,0 2.313,0.308 2.457,0.157 2.156,0.613 1.078,0.309 1.231,0.156 2.152,0.613 2.152,0.621 1.848,0.918 1.848,0.77 0.765,0.617 0.926,0.461 1.844,0.929 1.539,1.227 1.691,1.227 0.618,0.773 0.765,0.617 1.543,1.227 0.153,0 0.152,-4.614 0.308,-2.312 0.77,-2.461 38.613,0 -1.23,2.004 -0.926,2.156 -0.766,2.461 -0.617,2.617 -0.613,2.922 -0.305,3.235 -0.16,3.386 0,44.028 -0.766,14.004 0,0 z m -50.304,-36.946 14.918,4.614 0,-9.079 -0.305,-1.691 -0.309,-1.691 -0.46,-1.539 -0.305,-0.77 -0.156,-0.922 -0.77,-1.234 -0.461,-0.617 -0.312,-0.766 -0.918,-1.234 -0.926,-1.235 -1.231,-0.762 -0.617,-0.312 -0.304,-0.152 -0.153,-0.313 -1.387,-0.617 -1.23,-0.613 -1.539,-0.305 -0.461,0 -0.309,-0.156 -0.617,-0.309 -3.074,-0.305 -2.461,0.305 -2.152,0.465 -2,0.769 -1.696,1.079 -1.691,1.691 -1.078,1.539 -0.461,0.926 -0.152,0.765 -0.157,1.692 0.157,2.316 0.613,1.84 0.926,1.695 1.539,1.239 1.535,1.074 2.156,0.922 2.617,0.926 3.231,0.765 0,0" />
          <path
             id="path3205"
             style="fill:#000000;fill-opacity:1;fill-rule:evenodd;stroke:none"
             d="m 729.566,348.625 -0.152,3.531 -0.465,3.239 -0.617,3.074 -0.769,2.777 -1.079,2.926 -1.23,2.457 -1.535,2.465 -1.692,2.152 -2.464,2.617 -1.383,1.235 -1.231,0.922 -2.922,2.003 -3.078,1.383 -1.844,0.77 -1.695,0.465 -3.691,0.765 -4,0.461 -4.153,0.156 -3.847,0 -3.539,-0.457 -3.539,-0.461 -3.231,-0.929 -3.226,-0.926 -2.774,-1.379 -2.765,-1.387 -2.461,-1.847 -5.848,-5.082 -2.461,-2.926 -2.004,3.539 -1.226,1.699 -1.231,1.383 -1.539,1.539 -1.539,1.231 -1.691,1.234 -1.692,0.918 -2.004,1.078 -1.844,0.777 -3.847,1.078 -4.149,0.762 -4.004,0.156 -5.386,-0.156 -5.074,-0.762 -4.618,-1.078 -4.152,-1.855 -3.844,-1.996 -3.543,-2.774 -1.687,-1.379 -1.387,-1.695 -2.617,-3.699 -0.461,0 0,13.242 -36.461,0 0,-99.289 37.695,0 0,53.727 0.153,4.308 0.617,3.539 0.305,1.696 0.621,1.378 0.613,1.391 0.922,1.078 1.687,2.004 2.309,1.227 2.617,0.929 3.078,0.149 1.688,0 1.695,-0.309 1.387,-0.304 1.535,-0.618 1.078,-0.617 1.23,-1.078 0.922,-1.074 0.926,-1.387 0.309,-0.926 0.457,-1.226 0.617,-2.934 0.461,-3.23 0,-1.84 0.152,-2.156 0,-53.727 37.539,0 0,53.727 0.153,4.308 0.617,3.539 0.308,1.696 0.614,1.378 0.617,1.391 0.926,1.078 1.687,2.004 2.309,1.227 2.617,0.929 3.23,0.149 1.688,0 1.695,-0.309 1.387,-0.304 1.539,-0.618 1.078,-0.617 1.227,-1.078 0.925,-1.074 0.922,-1.387 0.309,-0.926 0.461,-1.226 0.613,-2.934 0.461,-3.23 0,-1.84 0.156,-2.156 0,-53.727 37.539,0 0,68.043" />
          <path
             id="path3207"
             style="fill:#000000;fill-opacity:1;fill-rule:evenodd;stroke:none"
             d="m 410.805,532.109 3.386,2.309 3.231,2.465 0.613,0.769 0.77,0.614 1.539,1.23 2.617,2.774 2.309,3.078 0.918,1.695 1.078,1.539 0.769,1.848 0.926,1.691 1.691,3.695 -35.234,0 -1.227,-1.539 -0.769,-0.617 -0.617,-0.769 -1.692,-1.231 -1.843,-1.078 -2.157,-0.769 -2.152,-0.618 -2.461,-0.308 -1.387,0 -1.23,-0.153 -2.309,0.153 -1.996,0.308 -2.004,0.465 -1.687,0.461 -3.235,1.848 -1.535,1.074 -1.23,1.234 -2.309,2.774 -0.926,1.691 -0.613,1.539 -0.769,1.848 -0.461,1.848 -0.461,4 72.457,0 -0.305,7.543 -0.309,3.539 -0.312,3.234 -0.609,3.387 -0.618,3.078 -0.769,3.078 -0.617,2.769 -1.078,2.926 -1.075,2.617 -1.23,2.618 -1.078,2.308 -1.535,2.465 -1.387,2.152 -3.231,3.852 -2.004,2 -1.843,1.691 -2.153,1.692 -2.004,1.39 -4.613,2.614 -4.922,2 -5.539,1.695 -5.844,1.078 -6.46,0.766 -6.618,0.156 -5.843,-0.156 -5.387,-0.766 -5.227,-1.078 -4.773,-1.848 -4.766,-2 -4.156,-2.773 -4.152,-3.078 -3.539,-3.692 -3.539,-3.695 -2.926,-4.156 -2.461,-4.156 -1.996,-4.618 -1.696,-4.617 -1.074,-5.082 -0.613,-5.078 -0.156,-5.543 0.156,-5.695 0.769,-5.696 0.457,-2.464 0.774,-2.618 0.766,-2.461 1.078,-2.617 0.922,-2.156 1.23,-2.305 1.234,-2.16 1.536,-2.308 3.23,-4 3.848,-3.848 3.843,-2.926 4.157,-2.769 4.461,-2.309 4.921,-2.004 5.079,-1.387 5.386,-1.074 5.688,-0.617 6,-0.309 4.308,0.157 4.309,0.461 4,0.613 4,0.769 3.691,1.079 3.696,1.23 3.383,1.543 1.691,0.922 1.844,0.769 0,0 z m -50.305,55.414 0.77,4.004 1.382,3.391 1.692,2.922 2.308,2.152 2.618,2.004 1.382,0.77 1.696,0.461 3.535,0.773 4.152,0.152 1.695,0 1.692,-0.308 1.539,-0.309 1.691,-0.613 1.383,-0.617 1.387,-0.926 1.23,-0.926 1.387,-1.226 1.844,-2.309 1.535,-2.926 0.926,-2.922 0.308,-3.547 -36.152,0 0,0" />
          <path
             id="path3209"
             style="fill:#000000;fill-opacity:1;fill-rule:evenodd;stroke:none"
             d="m 501.418,662.492 -17.078,0.77 -19.074,-1.696 -4.153,-1.078 -3.539,-1.691 -3.23,-2.156 -2.926,-2.614 -2.148,-2.308 -1.696,-2.621 -1.386,-2.922 -1.075,-3.387 -1.078,-3.543 -0.461,-4 -0.152,-4.308 0.152,-4.774 -15.386,0 0,-23.555 15.386,0 0,-75.734 37.692,0 0,75.734 19.23,0 0,23.555 -20,0 -0.152,3.231 0.461,2.464 0.769,2.157 1.078,1.382 1.536,1.079 2.156,0.769 2.613,0.461 3.231,0.156 9.23,-1.23 0,25.859" />
          <path
             id="path3211"
             style="fill:#000000;fill-opacity:1;fill-rule:evenodd;stroke:none"
             d="m 201.738,655.41 -133.9997,0 0,-265.379 118.1527,0 4,0.153 4.152,0 4,0.308 0.926,0.156 3.23,0 1.844,0.301 0.926,0.156 1.074,0 4,0.309 7.539,0.926 0.77,0.308 0.921,0.153 1.848,0.308 3.692,0.614 7.074,1.543 6.773,1.847 1.535,0.61 0.77,0.312 0.926,0.156 3.379,0.922 6.16,2.461 0.613,0.461 0.77,0.309 1.539,0.617 3.078,1.23 2.765,1.539 0.614,0.461 0.769,0.309 1.539,0.617 2.77,1.696 2.926,1.535 5.23,3.543 2.461,2 2.613,1.847 2.309,2.153 2.461,2.004 4.617,4.156 1.844,2.308 2,2.157 3.691,4.617 3.539,4.926 1.539,2.617 1.692,2.461 1.386,2.773 1.539,2.617 2.614,5.539 2.461,5.696 2.308,5.847 1.848,6.313 0.305,1.695 0.46,1.539 0.926,3.078 0.614,3.387 0.308,1.695 0.461,1.539 1.231,6.77 0.769,7.082 0.305,3.695 0.16,1.848 0.305,1.691 0,2 0.156,1.848 0.305,3.695 0,3.852 0.152,3.691 -0.152,7.082 -0.305,6.774 -0.621,6.773 -0.61,6.465 -1.078,6.465 -1.078,6.004 -1.383,6 -1.539,5.699 -1.847,5.691 -2,5.391 -2.153,5.387 -2.308,5.082 -2.618,5.078 -2.765,4.617 -3.078,4.617 -3.074,4.313 -4.161,5.078 -4.304,4.621 -4.461,4.461 -4.77,3.848 -5.078,3.851 -5.23,3.235 -2.766,1.691 -2.617,1.387 -5.539,2.617 -6,2.613 -6.153,2.004 -6.461,1.692 -6.613,1.382 -6.926,1.082 -7.078,0.766 -7.383,0.465 -7.535,0.152 0,0 z m -52.152,-67.887 30.461,0 4.457,-0.304 4.309,-0.461 4.312,-0.774 3.844,-0.765 3.844,-1.082 3.691,-1.227 3.539,-1.695 3.23,-1.539 3.079,-1.848 2.921,-2 2.922,-2.465 2.618,-2.308 2.46,-2.77 2.309,-2.926 2.305,-3.23 2.308,-3.848 2,-4.312 1.692,-4.309 1.386,-4.773 1.079,-4.77 0.765,-5.082 0.465,-5.234 0.309,-5.539 -0.157,-3.078 -0.152,-1.543 0,-1.692 -0.312,-2.926 -0.153,-3.078 -0.457,-2.769 -0.308,-2.926 -0.618,-2.621 -0.461,-2.766 -0.921,-2.465 -0.465,-1.23 -0.305,-1.387 -1.691,-4.926 -1.078,-2.156 -0.926,-2.308 -1.227,-2.157 -0.617,-1.078 -0.461,-1.226 -2,-2.774 -1.074,-1.23 -0.926,-1.383 -2.309,-2.465 -2.152,-2.465 -1.387,-0.925 -1.23,-1.079 -1.383,-0.921 -1.23,-1.079 -2.77,-1.687 -2.769,-1.695 -3.231,-1.231 -3.23,-1.234 -3.383,-1.078 -3.387,-0.922 -3.844,-0.614 -3.691,-0.464 -4.004,-0.305 -4,-0.156 -31.996,0 0,129.3" />
          <path
             id="path3213"
             style="fill:#000000;fill-opacity:1;fill-rule:evenodd;stroke:none"
             d="m 217.121,367.098 0.309,17.386 -58.157,0 -0.152,-37.863 0,-5.848 0.461,-5.851 0.773,-5.539 1.075,-5.547 1.386,-5.078 1.692,-5.074 2,-4.774 2.305,-4.773 2.46,-4.309 2.926,-4.308 3.227,-4.161 3.543,-4.007 3.844,-3.688 4.156,-3.539 4.461,-3.387 4.769,-3.234 4.77,-2.774 5.383,-2.765 5.691,-2.621 6,-2.461 6.152,-2.16 6.618,-1.996 6.921,-1.848 7.231,-1.695 7.23,-1.387 7.844,-1.231 8.156,-1.074 8.461,-1.078 8.617,-0.621 9.075,-0.613 9.386,-0.305 9.688,-0.309 7.078,0.149 6.926,0.308 3.23,0.313 3.387,0.152 3.227,0.305 3.386,0.156 6.153,0.774 6.152,0.769 5.848,1.074 2.769,0.618 1.387,0.304 1.535,0.157 1.23,0.464 1.387,0.309 2.77,0.613 5.226,1.539 4.922,1.692 4.926,1.695 2.152,1.078 2.309,0.922 2.156,1.074 2.305,0.93 2,1.227 2.152,1.082 2.004,1.23 2.152,1.078 2.309,1.844 2.461,1.695 2.309,1.844 2.46,1.695 2.153,2 2.305,1.848 4.156,3.695 3.539,4.004 3.539,4 1.535,2.16 1.543,2 1.383,2.153 1.539,1.996 0.461,1.234 0.613,1.078 1.231,2.16 0.464,1.227 0.614,1.078 1.234,2.156 0.766,2.469 0.922,2.301 1.695,4.621 1.078,4.926 0.918,4.922 0,1.39 0.16,1.227 0.305,2.469 0,1.382 0.156,1.235 0.305,2.453 0,179.336 -102.457,0 -0.157,-154.696 0,-5.234 -0.152,-2.473 -0.152,-1.222 0,-1.395 -0.309,-1.074 -0.156,-1.227 -0.305,-1.078 -0.156,-1.234 -0.617,-2.152 -0.613,-2.313 -0.922,-1.84 -0.926,-2.008 -1.078,-1.847 -1.071,-1.844 -1.39,-1.543 -1.231,-1.539 -1.535,-1.387 -1.383,-1.531 -0.773,-0.316 -0.613,-0.461 -1.231,-0.922 -2.461,-1.848 -2.613,-1.543 -2.465,-1.539 -2.769,-1.226 -1.383,-0.614 -1.231,-0.773 -5.539,-2.309 -5.847,-1.539 -3.075,-0.617 -2.925,-0.609 -3.227,-0.313 -3.078,-0.465 -6.461,-0.3 -6.77,0.457 -6.304,0.621 -6.16,1.074 -5.688,1.226 -5.695,1.692 -5.227,2.008 -5.082,2.465 -4.769,2.621 -2.922,1.996 -2.613,1.847 -2.618,2.153 -2.152,2.004 -2.152,2.308 -1.848,2.309 -1.848,2.461 -1.382,2.308 -1.54,2.77 -1.078,2.617 -1.074,2.777 -0.617,2.77 -0.77,3.078 -0.304,3.074 -0.309,3.231 0,3.086" />
          <path
             id="path3215"
             style="fill:#000000;fill-opacity:1;fill-rule:evenodd;stroke:none"
             d="m 79.8945,232.711 0,-68.965 26.1565,0 0,27.25 0.152,4.926 0.766,4.308 1.074,3.696 0.773,1.535 1.079,1.234 0.921,1.383 1.231,1.078 1.234,0.926 1.535,0.613 3.231,0.926 3.848,0.309 4.152,-0.461 0,22.929 -3.539,-0.148 -3.074,-0.621 -3.079,-0.918 -2.617,-1.387 -2.613,-1.695 -2.156,-2.156 -2,-2.618 -1.692,-3.074 -0.152,0 0,10.93 -25.2305,0 0,0" />
        </g>
      </g>
    </g>
  </g>
</svg>
